<svg id="Default" xmlns="http://www.w3.org/2000/svg" viewBox="0 0 2048 1024"><defs><style>.cls-1{fill:#2d8a25;}</style></defs><title>its-boehm-logo</title><rect x="117" y="117" width="1814" height="790"/><path class="cls-1" d="M1901,147V877H147V147H1901m60-60H87V937H1961V87Z"/><path class="cls-1" d="M382.49,614.12l-129.36-82.5V493.34l129.36-82.5v50.82l-83.16,50.16v1.32l83.16,50.16Z"/><path class="cls-1" d="M468.29,622V574.52h48.84V455.06H468.29V407.54H622.73v47.52H573.89V574.52h48.84V622Z"/><path class="cls-1" d="M748.13,622v-167H686.42V407.54H866.59v47.52H804.88V622Z"/><path class="cls-1" d="M1006.18,626a133.83,133.83,0,0,1-43.06-7.42A118.08,118.08,0,0,1,923,595.31l32.34-38.94a118.78,118.78,0,0,0,26.07,15,73.94,73.94,0,0,0,28.71,5.77q12.87,0,18.32-3.63t5.44-8.91a13.4,13.4,0,0,0-2.14-7.75,20.35,20.35,0,0,0-6.11-5.61,62.16,62.16,0,0,0-9.73-4.79q-5.77-2.31-13-5.28L976.15,530a81.24,81.24,0,0,1-17.49-8.74,64.29,64.29,0,0,1-14.35-12.87,59.87,59.87,0,0,1-9.74-17,59.11,59.11,0,0,1-3.63-21.12,57.76,57.76,0,0,1,5.94-25.9,65.24,65.24,0,0,1,16.67-21.12,80.75,80.75,0,0,1,25.74-14.36,100.4,100.4,0,0,1,33.49-5.28,111.79,111.79,0,0,1,38.28,6.93,101.29,101.29,0,0,1,35,21.78l-28.38,35.64a111.07,111.07,0,0,0-22.27-11.55q-10.73-4-25.91-4-9.57,0-15.34,3.47t-5.78,11.05a9.85,9.85,0,0,0,2.31,6.44,21.8,21.8,0,0,0,6.6,5.11,83.29,83.29,0,0,0,10.56,4.62q6.27,2.31,14.19,5.28l24.75,10.23q21.78,7.92,33.5,22.11T1092,557.36a63.17,63.17,0,0,1-5.61,26.07,62.52,62.52,0,0,1-16.5,22q-10.89,9.4-26.89,15T1006.18,626Z"/><path class="cls-1" d="M1160.62,622V407.54h76.56a189.67,189.67,0,0,1,31.51,2.48,81.36,81.36,0,0,1,25.58,8.41,44.58,44.58,0,0,1,17.16,16.34q6.27,10.39,6.27,26.23a48.64,48.64,0,0,1-8.75,27.56,46.79,46.79,0,0,1-27.55,18.64v1.32q22.77,4.62,34.15,16.67t11.39,33.49q0,16.5-6.44,28.55a55,55,0,0,1-17.82,19.8,79.55,79.55,0,0,1-26.56,11.38,138.72,138.72,0,0,1-32.34,3.63Zm56.76-130h18.48q13.86,0,20.13-6.27t6.27-16.17q0-9.9-6.27-14.19t-20.13-4.29h-18.48Zm0,86.46h22.44q16.83,0,24.25-6.27t7.43-18.15q0-11.88-7.43-17.16t-24.25-5.28h-22.44Z"/><path class="cls-1" d="M1391.62,674.84l108.9-287.1h46.86l-108.9,287.1Z"/><path class="cls-1" d="M1632.51,614.12V563.3l83.16-50.16v-1.32l-83.16-50.16V410.84l129.36,82.5v38.28Z"/></svg>