<svg xmlns="http://www.w3.org/2000/svg" viewBox="0 0 1024 1024"><defs><style>.cls-1{fill:#2d8a25;}</style></defs><title>its-boehm-logo-square</title><g id="Square"><rect x="107" y="107" width="810" height="810"/><path class="cls-1" d="M897,127V897H127V127H897m40-40H87V937H937V87Z"/><path class="cls-1" d="M236.78,434.49V387h48.84V267.51H236.78V220H391.22v47.52H342.38V387h48.84v47.52Z"/><path class="cls-1" d="M681.62,434.49v-167H619.91V220H800.09v47.52H738.38v167Z"/><path class="cls-1" d="M312.68,812.45A133.85,133.85,0,0,1,269.62,805a118,118,0,0,1-40.1-23.27l32.34-38.93a118.73,118.73,0,0,0,26.07,15,74,74,0,0,0,28.71,5.78q12.87,0,18.32-3.63t5.44-8.91a13.43,13.43,0,0,0-2.14-7.76,20.23,20.23,0,0,0-6.11-5.61,61.76,61.76,0,0,0-9.73-4.78q-5.78-2.31-13-5.28l-26.73-11.22a81.28,81.28,0,0,1-17.49-8.75,64.29,64.29,0,0,1-14.35-12.87,60.05,60.05,0,0,1-9.74-17,59.11,59.11,0,0,1-3.63-21.12,57.8,57.8,0,0,1,5.94-25.91,65.37,65.37,0,0,1,16.67-21.12,81,81,0,0,1,25.74-14.35A100.44,100.44,0,0,1,319.28,590,111.55,111.55,0,0,1,357.56,597a101.15,101.15,0,0,1,35,21.78l-28.38,35.64a110.8,110.8,0,0,0-22.27-11.55q-10.72-4-25.91-4-9.57,0-15.34,3.46t-5.78,11.06a9.82,9.82,0,0,0,2.31,6.43,21.82,21.82,0,0,0,6.6,5.12,83.29,83.29,0,0,0,10.56,4.62q6.27,2.31,14.19,5.27l24.75,10.24q21.78,7.92,33.5,22.11t11.71,36.63a63.17,63.17,0,0,1-5.61,26.07,62.48,62.48,0,0,1-16.5,21.94,82.06,82.06,0,0,1-26.89,15Q333.48,812.44,312.68,812.45Z"/><path class="cls-1" d="M632.12,808.49V594h76.56a189.71,189.71,0,0,1,31.51,2.47,81.37,81.37,0,0,1,25.58,8.42,44.48,44.48,0,0,1,17.16,16.33q6.26,10.39,6.27,26.24A48.64,48.64,0,0,1,780.45,675a46.79,46.79,0,0,1-11.38,11.39,47.3,47.3,0,0,1-16.17,7.26V695q22.77,4.62,34.15,16.66t11.39,33.5q0,16.5-6.44,28.54a55,55,0,0,1-17.82,19.8,79.65,79.65,0,0,1-26.56,11.39,138.78,138.78,0,0,1-32.34,3.63Zm56.76-130h18.48q13.86,0,20.13-6.27T733.76,656q0-9.9-6.27-14.2t-20.13-4.29H688.88Zm0,86.46h22.44q16.83,0,24.25-6.27T743,740.5q0-11.88-7.43-17.15t-24.25-5.28H688.88Z"/></g></svg>