<svg xmlns="http://www.w3.org/2000/svg" viewBox="0 0 1024 1024"><defs><style>.cls-1{fill:#2d8a25;}</style></defs><title>its-boehm-logo-square</title><g id="Square"><rect x="107" y="96.35" width="810" height="810"/><path class="cls-1" d="M897,116.35v770H127v-770H897m40-40H87v850H937v-850Z"/><path class="cls-1" d="M236.78,423.83V376.31h48.84V256.85H236.78V209.33H391.22v47.52H342.38V376.31h48.84v47.52Z"/><path class="cls-1" d="M681.62,423.83v-167H619.91V209.33H800.09v47.52H738.38v167Z"/><path class="cls-1" d="M312.68,801.79a133.83,133.83,0,0,1-43.06-7.42,118.17,118.17,0,0,1-40.1-23.27l32.34-38.94a118.38,118.38,0,0,0,26.07,15A73.94,73.94,0,0,0,316.64,753q12.87,0,18.32-3.63t5.44-8.91a13.42,13.42,0,0,0-2.14-7.75,20.23,20.23,0,0,0-6.11-5.61,62.61,62.61,0,0,0-9.73-4.79q-5.78-2.29-13-5.28l-26.73-11.22A80.79,80.79,0,0,1,265.16,697a64.29,64.29,0,0,1-14.35-12.87,60,60,0,0,1-9.74-17A59,59,0,0,1,237.44,646a57.76,57.76,0,0,1,5.94-25.9A65.37,65.37,0,0,1,260.05,599a81.16,81.16,0,0,1,25.74-14.36,100.69,100.69,0,0,1,33.49-5.28,111.79,111.79,0,0,1,38.28,6.93,101.29,101.29,0,0,1,35,21.78l-28.38,35.64a111.32,111.32,0,0,0-22.27-11.55q-10.72-4-25.91-4-9.57,0-15.34,3.47t-5.78,11.05a9.83,9.83,0,0,0,2.31,6.44,21.65,21.65,0,0,0,6.6,5.11,80.51,80.51,0,0,0,10.56,4.62q6.27,2.33,14.19,5.28l24.75,10.23q21.78,7.92,33.5,22.11t11.71,36.63a63.1,63.1,0,0,1-5.61,26.07,62.43,62.43,0,0,1-16.5,21.95,82.06,82.06,0,0,1-26.89,15Q333.48,801.79,312.68,801.79Z"/><path class="cls-1" d="M632.12,797.83V583.33h76.56a189.67,189.67,0,0,1,31.51,2.48,81.36,81.36,0,0,1,25.58,8.41,44.58,44.58,0,0,1,17.16,16.34q6.26,10.4,6.27,26.23a48.64,48.64,0,0,1-8.75,27.56,46.58,46.58,0,0,1-11.38,11.38A47.11,47.11,0,0,1,752.9,683v1.32q22.77,4.63,34.15,16.67t11.39,33.49Q798.44,751,792,763a55,55,0,0,1-17.82,19.8,79.44,79.44,0,0,1-26.56,11.38,138.25,138.25,0,0,1-32.34,3.63Zm56.76-130h18.48q13.86,0,20.13-6.27t6.27-16.17q0-9.9-6.27-14.19t-20.13-4.29H688.88Zm0,86.46h22.44q16.83,0,24.25-6.27T743,729.85q0-11.88-7.43-17.16t-24.25-5.28H688.88Z"/></g></svg>